<svg width="174" height="30" viewBox="0 0 174 30" fill="none" xmlns="http://www.w3.org/2000/svg">
<g id="Social">
<g id="001-facebook">
<path id="Path" d="M11.4322 5.85708H13.7715V1.55433C13.3679 1.49569 11.9799 1.36377 10.3635 1.36377C6.99078 1.36377 4.68036 3.60422 4.68036 7.72205V11.5118H0.958496V16.3219H4.68036V28.4251H9.24354V16.323H12.8149L13.3818 11.5129H9.24247V8.19901C9.24354 6.80873 9.598 5.85708 11.4322 5.85708Z" fill="white"/>
</g>
<g id="003-twitter">
<path id="Path_2" d="M93.875 5.61268C92.8186 6.10205 91.693 6.42643 90.5195 6.58393C91.7268 5.82268 92.6482 4.62643 93.0814 3.18455C91.9558 3.8933 90.713 4.39393 89.3886 4.6733C88.3198 3.47143 86.7965 2.72705 85.1348 2.72705C81.9106 2.72705 79.315 5.4908 79.315 8.87893C79.315 9.36643 79.3541 9.83518 79.45 10.2814C74.6085 10.0321 70.3244 7.58143 67.4465 3.8483C66.9441 4.76893 66.6494 5.82268 66.6494 6.95705C66.6494 9.08705 67.688 10.9752 69.2361 12.0683C68.3005 12.0496 67.3826 11.7627 66.605 11.3108C66.605 11.3296 66.605 11.3539 66.605 11.3783C66.605 14.3671 68.6236 16.8496 71.2707 17.4214C70.7967 17.5583 70.2801 17.6239 69.7439 17.6239C69.3711 17.6239 68.9947 17.6014 68.6414 17.5189C69.3959 19.9545 71.537 21.7452 74.0829 21.8033C72.1016 23.4402 69.5859 24.4264 66.8624 24.4264C66.3849 24.4264 65.9268 24.4039 65.4688 24.342C68.0484 26.0989 71.1056 27.102 74.4025 27.102C85.1188 27.102 90.9776 17.727 90.9776 9.6008C90.9776 9.32893 90.9687 9.06642 90.9563 8.8058C92.112 7.93955 93.0832 6.85768 93.875 5.61268Z" fill="white"/>
</g>
<g id="004-instagram">
<path id="Shape" fill-rule="evenodd" clip-rule="evenodd" d="M154.4 0H165.053C169.955 0 173.93 4.19812 173.93 9.375V20.625C173.93 25.8019 169.955 30 165.053 30H154.4C149.499 30 145.523 25.8019 145.523 20.625V9.375C145.523 4.19812 149.499 0 154.4 0ZM165.053 27.1875C168.479 27.1875 171.266 24.2437 171.266 20.625V9.375C171.266 5.75625 168.479 2.8125 165.053 2.8125H154.4C150.974 2.8125 148.186 5.75625 148.186 9.375V20.625C148.186 24.2437 150.974 27.1875 154.4 27.1875H165.053Z" fill="white"/>
<path id="Shape_2" fill-rule="evenodd" clip-rule="evenodd" d="M152.625 15C152.625 10.8581 155.805 7.5 159.727 7.5C163.648 7.5 166.828 10.8581 166.828 15C166.828 19.1419 163.648 22.5 159.727 22.5C155.805 22.5 152.625 19.1419 152.625 15ZM155.288 15C155.288 17.5837 157.28 19.6875 159.726 19.6875C162.173 19.6875 164.165 17.5837 164.165 15C164.165 12.4144 162.173 10.3125 159.726 10.3125C157.28 10.3125 155.288 12.4144 155.288 15Z" fill="white"/>
<ellipse id="Oval" cx="167.36" cy="6.93736" rx="0.94635" ry="0.999375" fill="white"/>
</g>
</g>
</svg>
